<svg width="141" height="64" viewBox="0 0 141 64" fill="none" xmlns="http://www.w3.org/2000/svg">
<g clip-path="url(#clip0_1_5)">
<path d="M19.093 26.1669V6.76578C19.093 0.411407 27.8837 0.411407 27.8837 6.76578V40.9299H30.814C32.7674 40.9299 35.2093 38.549 35.2093 36.6442V33.7871C35.2093 27.5966 44 27.5966 44 33.7871V36.6442C44 44.7394 36.186 49.5014 30.814 49.5014H27.8837V62H19.093V34.7997C18.3759 34.8148 17.4234 34.8338 16.1628 34.8574C9.81396 34.9765 2 28.786 2 21.0479V18.5479C2 12.8336 10.7907 12.8336 10.7907 18.5479V20.9288C10.7907 22.8336 12.7442 26.1669 16.1628 26.1669H19.093Z" stroke="#27AE60" stroke-width="4"/>
<path d="M58.1758 42.9999H60.4798V36.0559C60.4798 35.0959 60.5438 33.5279 61.4398 32.4719C62.1118 31.6719 62.9758 31.4479 63.7758 31.4479C64.7998 31.4479 65.5038 31.8319 65.9518 32.4079C66.4958 33.1119 66.5598 34.0399 66.5598 34.8399V42.9999H68.8638V34.7759C68.8638 33.3039 68.7678 32.2159 68.0958 31.2239C67.2958 30.0399 65.8558 29.3999 64.2878 29.3999C62.0798 29.3999 60.8958 30.7119 60.4798 31.2559V19.6719H58.1758V42.9999Z" fill="#251C19"/>
<path d="M78.9462 43.3839C82.9782 43.3839 85.9862 40.4399 85.9862 36.4079C85.9862 32.3759 83.0102 29.3999 78.9462 29.3999C74.8822 29.3999 71.9062 32.3759 71.9062 36.4079C71.9062 40.4399 74.9142 43.3839 78.9462 43.3839ZM78.9462 31.4479C81.3782 31.4479 83.6182 33.1439 83.6182 36.4079C83.6182 39.6399 81.3462 41.3359 78.9462 41.3359C76.5782 41.3359 74.2742 39.6719 74.2742 36.4079C74.2742 33.1759 76.5142 31.4479 78.9462 31.4479Z" fill="#251C19"/>
<path d="M87.5995 29.7199L94.1275 43.9279L98.2235 34.0079L102.32 43.9279L108.912 29.7199H106.352L102.384 38.7439L98.2555 28.6959L94.0955 38.7439L90.1595 29.7199H87.5995Z" fill="#251C19"/>
<path d="M121.508 31.6079C120.9 30.8079 119.524 29.3999 116.964 29.3999C113.572 29.3999 110.5 31.7679 110.5 36.3439C110.5 41.0159 113.604 43.3839 116.964 43.3839C119.3 43.3839 120.74 42.1359 121.508 41.1439V42.9999H123.812V19.6719H121.508V31.6079ZM117.22 31.4479C119.268 31.4479 121.636 32.9519 121.636 36.3759C121.636 38.9999 120.036 41.3359 117.22 41.3359C114.468 41.3359 112.868 39.1919 112.868 36.3439C112.868 33.1119 114.948 31.4479 117.22 31.4479Z" fill="#251C19"/>
<path d="M128.144 50.3599H130.704L140.464 29.7199H137.904L133.584 39.2239L128.88 29.7199H126.256L132.368 41.7519L128.144 50.3599Z" fill="#251C19"/>
</g>
<defs>
<clipPath id="clip0_1_5">
<rect width="141" height="64" fill="white"/>
</clipPath>
</defs>
</svg>
